<svg width="17" height="17" viewBox="0 0 17 17" fill="none" xmlns="http://www.w3.org/2000/svg">
<path d="M8.82302 1.68003V0.890428C8.82302 0.520828 8.41502 0.302428 8.09202 0.487228L5.37202 2.11683C5.06602 2.30163 5.06602 2.73843 5.37202 2.92323L8.09202 4.55283C8.41502 4.73763 8.82302 4.51923 8.82302 4.14963V3.24243C11.543 3.41043 13.702 5.62803 13.702 8.36643C13.702 9.57603 13.277 10.7352 12.495 11.6592C12.393 11.7768 12.41 11.9448 12.512 12.0456L13.277 12.7512C13.396 12.852 13.583 12.852 13.685 12.7344C14.739 11.5248 15.3 9.97923 15.3 8.36643C15.317 4.77123 12.444 1.84803 8.82302 1.68003Z" fill="black"/>
<path d="M8.89098 12.2305C8.56798 12.0457 8.15998 12.2641 8.15998 12.6337V13.5409C5.43998 13.3729 3.28098 11.1553 3.28098 8.41692C3.28098 7.20732 3.70598 6.04812 4.48798 5.12412C4.58998 5.00652 4.57298 4.83852 4.47098 4.73772L3.70598 4.03212C3.58698 3.93132 3.39998 3.93132 3.29798 4.04892C2.24398 5.25852 1.68298 6.80412 1.68298 8.41692C1.68298 12.0289 4.57298 14.9521 8.17698 15.1201V15.9097C8.17698 16.2793 8.58498 16.4977 8.90798 16.3129L11.628 14.6833C11.934 14.4985 11.934 14.0617 11.628 13.8769L8.89098 12.2305Z" fill="black"/>
</svg>
